<svg xmlns="http://www.w3.org/2000/svg" viewBox="0 0 1600 1100">
  <defs>
    <linearGradient id="g" x1="0" x2="1" y1="0" y2="1">
      <stop offset="0" stop-color="#f8f8f2"/>
      <stop offset=".5" stop-color="#e4ddd1"/>
      <stop offset="1" stop-color="#eef3f1"/>
    </linearGradient>
  </defs>
  <rect width="1600" height="1100" fill="url(#g)"/>
  <circle cx="1210" cy="250" r="270" fill="#fff" opacity=".34"/>
  <path d="M720 150c-106 140-184 290-230 530 80 58 176 92 288 100-18 110-48 215-90 320h410c-58-116-92-220-102-320 112-8 208-42 288-100-44-240-122-390-230-530z" fill="#fafafa"/>
  <path d="M505 675c210 88 520 88 730 0M740 915c94 30 210 30 304 0" fill="none" stroke="#8b8173" stroke-width="8" stroke-linecap="round" opacity=".38"/>
</svg>
