<svg xmlns="http://www.w3.org/2000/svg" viewBox="0 0 1200 1500">
  <defs>
    <linearGradient id="g" x1="0" x2="1" y1="0" y2="1">
      <stop offset="0" stop-color="#fbfcfb"/>
      <stop offset=".5" stop-color="#dfe9ea"/>
      <stop offset="1" stop-color="#bcced1"/>
    </linearGradient>
  </defs>
  <rect width="1200" height="1500" fill="url(#g)"/>
  <path d="M0 1040c210-78 410-86 600-20s390 68 600-24v504H0z" fill="#fff" opacity=".58"/>
  <path d="M594 220c-88 118-148 312-190 584-18 116-48 240-90 372 176 78 392 80 574 0-46-132-78-256-96-372-42-272-102-466-198-584z" fill="#f8fbfb"/>
  <path d="M420 520c114 52 250 52 364 0M380 850c154 64 330 64 484 0" fill="none" stroke="#6f8f96" stroke-width="8" stroke-linecap="round" opacity=".4"/>
</svg>
