<svg xmlns="http://www.w3.org/2000/svg" viewBox="0 0 1600 1100">
  <defs>
    <linearGradient id="g" x1="0" x2="1" y1="0" y2="1">
      <stop offset="0" stop-color="#fbfcfc"/>
      <stop offset=".62" stop-color="#dcebec"/>
      <stop offset="1" stop-color="#ffffff"/>
    </linearGradient>
  </defs>
  <rect width="1600" height="1100" fill="url(#g)"/>
  <path d="M0 760c280-88 520-94 760-26s520 78 840-38v404H0z" fill="#fff" opacity=".55"/>
  <path d="M790 136c-122 164-194 372-216 624-10 116-44 226-102 340h560c-62-118-96-226-106-340-22-252-94-460-136-624z" fill="#f9fbfb"/>
  <path d="M575 512c120 58 320 58 440 0M526 812c174 70 396 70 570 0" fill="none" stroke="#71929a" stroke-width="8" stroke-linecap="round" opacity=".4"/>
</svg>
